name Walk4.mot
datacolumns 19
datarows 27
range 1.19100000 1.21700000
endheader

                time	   L_ground_force_vx	   L_ground_force_vy	   L_ground_force_vz	   L_ground_force_px	   L_ground_force_py	   L_ground_force_pz	   R_ground_force_vx	   R_ground_force_vy	   R_ground_force_vz	   R_ground_force_px	   R_ground_force_py	   R_ground_force_pz	   L_ground_torque_x	   L_ground_torque_y	   L_ground_torque_z	   R_ground_torque_x	   R_ground_torque_y	   R_ground_torque_z	
          1.19100000	         -9.54783097	        144.81731563	        -21.17642620	         -0.00271733	          0.00000000	         -0.00173292	         -0.00000000	          0.00000000	          0.00000000	          0.00000000	          0.00000000	          0.00000000	          0.00000000	          0.22981149	          0.00000000	          0.00000000	         -0.00000000	          0.00000000	
          1.19200000	        -10.91874836	        156.87967587	        -22.31928438	         -0.01881962	          0.00000000	         -0.00114988	         -0.00000000	          0.00000000	          0.00000000	          0.00000000	          0.00000000	          0.00000000	          0.00000000	          0.24365758	          0.00000000	          0.00000000	         -0.00000000	          0.00000000	
          1.19300000	        -12.35593107	        169.22763927	        -23.49496497	         -0.03486929	          0.00000000	         -0.00057277	         -0.00000000	          0.00000000	          0.00000000	          0.00000000	          0.00000000	          0.00000000	          0.00000000	          0.25801902	          0.00000000	          0.00000000	         -0.00000000	          0.00000000	
          1.19400000	        -13.85986295	        181.84011462	        -24.70135831	         -0.05081553	          0.00000000	         -0.00000417	         -0.00000000	          0.00000000	          0.00000000	          0.00000000	          0.00000000	          0.00000000	          0.00000000	          0.27288125	          0.00000000	          0.00000000	         -0.00000000	          0.00000000	
          1.19500000	        -15.43084464	        194.69343164	        -25.93597607	         -0.06660867	          0.00000000	          0.00055357	         -0.00000000	          0.00000000	          0.00000000	          0.00000000	          0.00000000	          0.00000000	          0.00000000	          0.28822549	          0.00000000	          0.00000000	         -0.00000000	          0.00000000	
          1.19600000	        -17.06898456	        207.76125226	        -27.19591515	         -0.08220198	          0.00000000	          0.00109848	         -0.00000000	          0.00000000	          0.00000000	          0.00000000	          0.00000000	          0.00000000	          0.00000000	          0.30402819	          0.00000000	          0.00000000	         -0.00000000	          0.00000000	
          1.19700000	        -18.77418886	        221.01451960	        -28.47782050	         -0.09755286	          0.00000000	          0.00162904	         -0.00000000	          0.00000000	          0.00000000	          0.00000000	          0.00000000	          0.00000000	          0.00000000	          0.32026042	          0.00000000	          0.00000000	          0.00000000	          0.00000000	
          1.19800000	        -20.54614834	        234.42145441	        -29.77785135	         -0.11262302	          0.00000000	          0.00214409	         -0.00000000	          0.00000000	          0.00000000	          0.00000000	          0.00000000	          0.00000000	          0.00000000	          0.33688748	          0.00000000	          0.00000000	          0.00000000	          0.00000000	
          1.19900000	        -22.38432596	        247.94764592	        -31.09164998	         -0.12737835	          0.00000000	          0.00264268	         -0.00000000	          0.00000000	          0.00000000	          0.00000000	          0.00000000	          0.00000000	          0.00000000	          0.35386924	          0.00000000	          0.00000000	          0.00000000	          0.00000000	
          1.20000000	        -24.28794769	        261.55628872	        -32.41431385	         -0.14178871	          0.00000000	          0.00312404	         -0.00000000	          0.00000000	          0.00000000	          0.00000000	          0.00000000	          0.00000000	          0.00000000	          0.37116109	          0.00000000	          0.00000000	          0.00000000	          0.00000000	
          1.20100000	        -26.25599642	        275.20860675	        -33.74037500	         -0.15582780	          0.00000000	          0.00358752	         -0.00000000	          0.00000000	          0.00000000	          0.00000000	          0.00000000	          0.00000000	          0.00000000	          0.38871565	          0.00000000	          0.00000000	          0.00000000	          0.00000000	
          1.20200000	        -28.28720599	        288.86448368	        -35.06379268	         -0.16947293	          0.00000000	          0.00403255	         -0.00000000	          0.00000000	          0.00000000	          0.00000000	          0.00000000	          0.00000000	          0.00000000	          0.40648476	          0.00000000	          0.00000000	          0.00000000	          0.00000000	
          1.20300000	        -30.38005172	        302.48328116	        -36.37796641	         -0.18270478	          0.00000000	          0.00445862	         -0.00000000	          0.00000000	          0.00000000	          0.00000000	          0.00000000	          0.00000000	          0.00000000	          0.42442150	          0.00000000	          0.00000000	          0.00000000	          0.00000000	
          1.20400000	        -32.53273395	        316.02478035	        -37.67577623	         -0.19550727	          0.00000000	          0.00486528	         -0.00000000	          0.00000000	          0.00000000	          0.00000000	          0.00000000	          0.00000000	          0.00000000	          0.44248186	          0.00000000	          0.00000000	          0.00000000	          0.00000000	
          1.20500000	        -34.74315374	        329.45014610	        -38.94965392	         -0.20786727	          0.00000000	          0.00525213	         -0.00000000	          0.00000000	          0.00000000	          0.00000000	          0.00000000	          0.00000000	          0.00000000	          0.46062569	          0.00000000	          0.00000000	          0.00000000	          0.00000000	
          1.20600000	        -37.00888278	        342.72280174	        -40.19168429	         -0.21977445	          0.00000000	          0.00561881	         -0.00000000	          0.00000000	          0.00000000	          0.00000000	          0.00000000	          0.00000000	          0.00000000	          0.47881688	          0.00000000	          0.00000000	          0.00000000	          0.00000000	
          1.20700000	        -39.32713217	        355.80912097	        -41.39373086	         -0.23122107	          0.00000000	          0.00596497	         -0.00000000	          0.00000000	          0.00000000	          0.00000000	          0.00000000	          0.00000000	          0.00000000	          0.49702263	          0.00000000	          0.00000000	          0.00000000	          0.00000000	
          1.20800000	        -41.69472618	        368.67888196	        -42.54757674	         -0.24220179	          0.00000000	          0.00629033	         -0.00000000	          0.00000000	          0.00000000	          0.00000000	          0.00000000	          0.00000000	          0.00000000	          0.51521226	          0.00000000	          0.00000000	          0.00000000	          0.00000000	
          1.20900000	        -44.10808582	        381.30547441	        -43.64507017	         -0.25271348	          0.00000000	          0.00659463	         -0.00000000	          0.00000000	          0.00000000	          0.00000000	          0.00000000	          0.00000000	          0.00000000	          0.53335577	          0.00000000	          0.00000000	          0.00000000	          0.00000000	
          1.21000000	        -46.56322518	        393.66588782	        -44.67826508	         -0.26275505	          0.00000000	          0.00687764	         -0.00000000	          0.00000000	          0.00000000	          0.00000000	          0.00000000	          0.00000000	          0.00000000	          0.55142260	          0.00000000	          0.00000000	          0.00000000	          0.00000000	
          1.21100000	        -49.05576006	        405.74053376	        -45.63954922	         -0.27232730	          0.00000000	          0.00713919	         -0.00000000	          0.00000000	          0.00000000	          0.00000000	          0.00000000	          0.00000000	          0.00000000	          0.56938046	          0.00000000	          0.00000000	          0.00000000	          0.00000000	
          1.21200000	        -51.58092757	        417.51296400	        -46.52175568	         -0.28143273	          0.00000000	          0.00737915	         -0.00000000	          0.00000000	          0.00000000	          0.00000000	          0.00000000	          0.00000000	          0.00000000	          0.58719444	          0.00000000	          0.00000000	          0.00000000	          0.00000000	
          1.21300000	        -54.13361418	        428.96954364	        -47.31825608	         -0.29007538	          0.00000000	          0.00759742	         -0.00000000	          0.00000000	          0.00000000	          0.00000000	          0.00000000	          0.00000000	          0.00000000	          0.60482639	          0.00000000	          0.00000000	          0.00000000	          0.00000000	
          1.21400000	        -56.70839049	        440.09912733	        -48.02303603	         -0.29826071	          0.00000000	          0.00779398	         -0.00000000	          0.00000000	          0.00000000	          0.00000000	          0.00000000	          0.00000000	          0.00000000	          0.62223462	          0.00000000	          0.00000000	          0.00000000	          0.00000000	
          1.21500000	        -59.29955112	        450.89277171	        -48.63075371	         -0.30599544	          0.00000000	          0.00796882	         -0.00000000	          0.00000000	          0.00000000	          0.00000000	          0.00000000	          0.00000000	          0.00000000	          0.63937377	          0.00000000	          0.00000000	          0.00000000	          0.00000000	
          1.21600000	        -61.90115911	        461.34350193	        -49.13678339	         -0.31328742	          0.00000000	          0.00812201	         -0.00000000	          0.00000000	          0.00000000	          0.00000000	          0.00000000	          0.00000000	          0.00000000	          0.65619466	          0.00000000	          0.00000000	          0.00000000	          0.00000000	
          1.21700000	        -64.50709441	        471.44613726	        -49.53724543	         -0.32014550	          0.00000000	          0.00825365	         -0.00000000	          0.00000000	          0.00000000	          0.00000000	          0.00000000	          0.00000000	          0.00000000	          0.67264415	          0.00000000	          0.00000000	          0.00000000	          0.00000000	
